<?xml version="1.0" standalone="no"?>
<!DOCTYPE svg PUBLIC "-//W3C//DTD SVG 20010904//EN"
 "http://www.w3.org/TR/2001/REC-SVG-20010904/DTD/svg10.dtd">
<svg version="1.0" xmlns="http://www.w3.org/2000/svg"
 width="490.000000pt" height="487.000000pt" viewBox="0 0 490.000000 487.000000"
 preserveAspectRatio="xMidYMid meet">
<metadata>
Created by potrace 1.16, written by Peter Selinger 2001-2019
</metadata>
<g transform="translate(0.000000,487.000000) scale(0.100000,-0.100000)"
fill="#000000" stroke="none">
<path d="M857 4806 c-14 -13 -29 -35 -32 -48 -3 -12 -4 -244 -3 -514 3 -467 4
-493 22 -513 11 -12 28 -21 38 -21 11 0 16 -4 13 -10 -4 -7 520 -10 1565 -10
1045 0 1569 3 1565 10 -3 6 2 10 13 10 10 0 27 9 38 21 18 20 19 46 22 513 1
270 0 501 -3 513 -3 12 -18 34 -33 48 l-27 25 -1576 0 -1576 0 -26 -24z m1526
-543 l-3 -408 -702 0 -703 0 -3 408 -2 407 707 0 708 0 -2 -407z m1565 0 l-3
-408 -705 0 -705 0 -3 408 -2 407 710 0 710 0 -2 -407z"/>
<path d="M1295 4275 c-30 -29 -32 -64 -6 -96 l19 -24 330 0 c310 0 331 1 351
19 31 28 28 79 -5 105 -26 20 -38 21 -346 21 l-319 0 -24 -25z"/>
<path d="M2936 4279 c-33 -26 -36 -77 -5 -105 20 -18 41 -19 351 -19 l330 0
19 24 c26 32 24 67 -6 96 l-24 25 -319 0 c-308 0 -320 -1 -346 -21z"/>
<path d="M991 3524 c-12 -15 -21 -35 -21 -44 0 -10 -16 -30 -35 -45 -79 -60
-107 -106 -107 -176 0 -61 33 -120 96 -172 25 -21 46 -44 46 -52 0 -8 -23 -33
-51 -57 -87 -74 -121 -178 -70 -219 45 -36 101 -16 120 44 7 20 29 47 56 67
50 38 95 116 95 165 0 49 -46 130 -95 167 -24 18 -47 39 -50 47 -4 9 18 37 58
75 84 81 109 158 67 204 -30 32 -82 30 -109 -4z"/>
<path d="M1367 3533 c-8 -10 -19 -31 -22 -46 -5 -17 -25 -42 -50 -60 -64 -48
-88 -89 -93 -158 -4 -49 0 -65 21 -101 14 -24 46 -58 71 -77 58 -44 59 -66 4
-106 -88 -65 -127 -177 -76 -225 42 -39 101 -19 119 41 6 22 27 47 58 72 120
91 120 226 1 326 -28 23 -50 50 -50 60 0 10 23 37 51 61 78 66 110 156 73 208
-19 28 -83 31 -107 5z"/>
<path d="M1736 3528 c-9 -12 -16 -30 -16 -39 0 -9 -25 -38 -56 -65 -124 -105
-125 -215 -3 -327 37 -35 57 -61 54 -70 -4 -8 -26 -29 -51 -47 -49 -38 -94
-116 -94 -165 0 -37 35 -75 69 -75 36 0 59 17 71 55 7 20 31 51 61 76 61 51
89 103 89 164 0 61 -28 113 -90 165 -27 23 -50 49 -50 58 0 10 23 36 50 60 59
51 90 106 90 160 0 48 -24 72 -73 72 -26 0 -40 -6 -51 -22z"/>
<path d="M3450 2791 c-148 -48 -241 -136 -298 -285 -12 -31 -17 -98 -21 -276
l-6 -235 -617 -3 c-340 -1 -618 0 -618 3 0 3 10 25 23 48 21 40 22 55 25 302
3 253 3 262 -18 288 l-21 27 -589 0 c-564 0 -589 -1 -611 -19 l-24 -19 0 -264
c0 -253 1 -265 23 -309 12 -25 22 -48 22 -52 0 -4 -134 -7 -298 -7 l-299 0
-26 -30 -27 -30 0 -906 0 -907 30 -28 30 -29 2330 0 2330 0 30 29 30 28 0 918
c0 505 -3 915 -6 912 -4 -3 -15 5 -26 18 l-19 25 -760 0 -759 0 0 75 0 75 44
0 c60 0 100 33 98 81 -1 47 -31 69 -93 69 l-49 0 0 65 c0 85 28 159 82 214 62
62 109 84 199 89 67 4 84 1 131 -20 94 -43 161 -127 174 -220 13 -94 37 -128
90 -128 31 0 64 47 64 91 0 185 -144 366 -330 414 -76 20 -172 18 -240 -4z
m-2138 -291 c316 0 458 3 458 11 0 5 5 7 10 4 6 -4 10 -82 10 -201 0 -194 0
-195 -25 -219 -26 -26 -64 -34 -66 -12 0 10 -2 10 -6 0 -4 -10 -96 -13 -413
-13 -386 0 -409 1 -431 19 -24 19 -24 23 -27 211 -3 200 0 232 20 212 9 -9
134 -12 470 -12z m-853 -680 c6 -18 21 -34 36 -40 38 -14 477 -13 509 1 14 7
29 25 35 40 l10 29 110 0 111 0 0 -300 0 -300 -520 0 -520 0 0 300 0 300 109
0 109 0 11 -30z m3041 -790 l0 -820 -1040 0 -1040 0 0 820 0 820 1040 0 1040
0 0 -820z m381 791 c6 -15 21 -33 35 -40 32 -14 471 -15 509 -1 15 6 30 22 36
40 l11 30 109 0 109 0 0 -300 0 -300 -520 0 -520 0 0 300 0 300 111 0 110 0
10 -29z m-2611 -1166 l0 -445 -520 0 -520 0 0 445 0 445 520 0 520 0 0 -445z
m3420 0 l0 -445 -520 0 -520 0 0 445 0 445 520 0 520 0 0 -445z"/>
<path d="M1519 1601 l-24 -19 -3 -374 c-2 -205 0 -388 3 -406 3 -18 15 -42 26
-53 19 -19 41 -19 939 -19 898 0 920 0 939 19 11 11 23 35 26 53 3 18 5 201 3
406 l-3 374 -24 19 c-22 18 -52 19 -941 19 -889 0 -919 -1 -941 -19z m1759
-423 l-3 -293 -815 0 -815 0 -3 293 -2 292 820 0 820 0 -2 -292z"/>
<path d="M1985 498 c-50 -27 -59 -75 -20 -113 l24 -25 471 0 471 0 24 25 c39
38 32 86 -16 110 -23 13 -103 15 -481 15 -309 -1 -459 -4 -473 -12z"/>
</g>
</svg>
